<?xml version="1.0" standalone="no"?>
<!DOCTYPE svg PUBLIC "-//W3C//DTD SVG 20010904//EN"
 "http://www.w3.org/TR/2001/REC-SVG-20010904/DTD/svg10.dtd">
<svg version="1.0" xmlns="http://www.w3.org/2000/svg"
 width="128.000000pt" height="128.000000pt" viewBox="0 0 128.000000 128.000000"
 preserveAspectRatio="xMidYMid meet">
<metadata>
Created by potrace 1.11, written by Peter Selinger 2001-2013
</metadata>
<g transform="translate(0.000000,128.000000) scale(0.100000,-0.100000)"
fill="#000000" stroke="none">
<path d="M157 1013 c-29 -12 -36 -20 -32 -33 4 -12 -2 -23 -14 -32 -12 -9 -17
-19 -12 -27 5 -8 -10 -43 -40 -93 l-49 -81 0 -91 c0 -180 63 -305 185 -369 31
-17 58 -21 125 -21 118 0 177 25 274 115 40 38 76 69 79 69 4 0 22 -27 41 -60
57 -97 95 -125 183 -136 27 -3 57 -7 68 -9 61 -7 160 42 233 116 74 75 85 111
80 252 -6 143 -24 196 -84 245 -22 17 -59 47 -82 67 -46 37 -57 41 -67 26 -3
-6 -15 -8 -28 -5 -35 7 -112 7 -149 -1 -52 -12 -101 -40 -173 -101 l-66 -56
-21 29 c-37 49 -125 131 -159 149 -23 12 -64 19 -126 22 -80 4 -93 7 -98 23
-8 23 -18 23 -68 2z m262 -258 c47 -24 131 -95 131 -110 0 -8 -25 -39 -57 -69
-59 -57 -122 -83 -188 -77 -41 4 -121 49 -141 79 -33 51 11 152 67 152 19 0
29 5 29 15 0 7 8 18 17 23 22 13 108 5 142 -13z m615 -30 c31 -15 106 -79 106
-91 0 -29 -28 -102 -44 -116 -36 -30 -103 -51 -144 -45 -65 8 -132 43 -132 67
0 12 -3 19 -8 16 -4 -2 -16 2 -26 10 -18 13 -17 16 25 70 60 78 61 79 84 92
29 16 101 15 139 -3z"/>
</g>
</svg>
